<svg xmlns="http://www.w3.org/2000/svg" width="11" height="16" viewBox="0 0 11 16">
  <defs>
    <style>
      .cls-1 {
        fill: #e6e6e6;
        fill-rule: evenodd;
      }
    </style>
  </defs>
  <path id="tag" class="cls-1" d="M1078.43,308.239a1.623,1.623,0,0,0-.43,1.081v10.592a1.126,1.126,0,0,0,1.15,1.094h8.71a1.126,1.126,0,0,0,1.15-1.093V309.32a1.623,1.623,0,0,0-.43-1.081l-2.5-2.728a1.594,1.594,0,0,0-1.16-.5h-2.83a1.594,1.594,0,0,0-1.16.5Zm6.56,0.261a1.49,1.49,0,1,1-1.49-1.5A1.5,1.5,0,0,1,1084.99,308.5Z" transform="translate(-1078 -305)"/>
</svg>
